<svg xmlns="http://www.w3.org/2000/svg" style="display: none;">
  <!-- Instagram -->
  <symbol id="icon-instagram" viewBox="0 0 24 24">
    <rect x="2" y="2" width="20" height="20" rx="5" ry="5" stroke="currentColor" stroke-width="2" fill="none"/>
    <path d="M16 11.37A4 4 0 1 1 12.63 8 4 4 0 0 1 16 11.37z" stroke="currentColor" stroke-width="2" fill="none"/>
    <circle cx="17.5" cy="6.5" r="0.5" fill="currentColor"/>
  </symbol>

  <!-- Facebook -->
  <symbol id="icon-facebook" viewBox="0 0 24 24">
    <path d="M22 12a10 10 0 1 0-11.63 9.87v-6.99H7.9v-2.88h2.47V9.41c0-2.44 1.45-3.79 3.67-3.79 1.06 0 2.17.19 2.17.19v2.38h-1.22c-1.2 0-1.57.75-1.57 1.52v1.83h2.67l-.43 2.88h-2.24v6.99A10 10 0 0 0 22 12z" fill="currentColor"/>
  </symbol>

  <!-- WhatsApp -->
  <symbol id="icon-whatsapp" viewBox="0 0 24 24">
    <path d="M17.472 14.382c-.297-.149-1.758-.867-2.03-.967-.273-.099-.472-.148-.67.15-.198.297-.767.966-.94 1.164-.173.198-.347.223-.644.074-.297-.149-1.255-.462-2.39-1.475-.883-.788-1.48-1.761-1.653-2.059-.173-.297-.018-.458.13-.606.134-.133.298-.347.446-.52.149-.173.198-.297.298-.495.099-.198.05-.372-.025-.521-.075-.149-.669-1.611-.916-2.207-.242-.579-.487-.5-.669-.51l-.57-.01c-.198 0-.52.074-.792.372s-1.04 1.016-1.04 2.479 1.065 2.876 1.213 3.074c.149.198 2.096 3.2 5.077 4.487.709.306 1.262.489 1.694.625.712.227 1.36.195 1.872.118.571-.085 1.758-.719 2.007-1.413.248-.694.248-1.29.173-1.413-.074-.124-.272-.198-.57-.347z" fill="currentColor"/>
  </symbol>

  <!-- LinkedIn -->
  <symbol id="icon-linkedin" viewBox="0 0 24 24">
    <path d="M4.98 3.5C4.98 4.88 3.88 6 2.5 6S0 4.88 0 3.5 1.12 1 2.5 1 4.98 2.12 4.98 3.5zM.5 8h4V24h-4V8zm7.5 0h3.6v2.2h.05c.5-.95 1.7-1.95 3.5-1.95 3.75 0 4.45 2.45 4.45 5.65V24h-4v-7.5c0-1.8-.03-4.1-2.5-4.1-2.5 0-2.9 1.95-2.9 3.95V24h-4V8z" fill="currentColor"/>
  </symbol>

  <!-- GitHub -->
  <symbol id="icon-github" viewBox="0 0 24 24">
    <path d="M12 0.5C5.37 0.5 0 5.87 0 12.5c0 5.29 3.438 9.77 8.205 11.365.6.111.82-.26.82-.577v-2.234c-3.338.726-4.033-1.416-4.033-1.416-.546-1.387-1.333-1.756-1.333-1.756-1.089-.745.083-.729.083-.729 1.205.085 1.84 1.238 1.84 1.238 1.07 1.834 2.807 1.304 3.492.997.108-.775.418-1.305.76-1.605-2.665-.305-5.466-1.332-5.466-5.931 0-1.31.469-2.381 1.236-3.221-.124-.303-.536-1.524.117-3.176 0 0 1.008-.322 3.3 1.23a11.52 11.52 0 0 1 3.003-.403c1.02.005 2.047.138 3.003.403 2.29-1.552 3.296-1.23 3.296-1.23.655 1.652.243 2.873.12 3.176.77.84 1.235 1.911 1.235 3.221 0 4.61-2.804 5.624-5.475 5.921.43.37.823 1.102.823 2.222v3.293c0 .32.218.694.825.576C20.565 22.27 24 17.79 24 12.5 24 5.87 18.63 0.5 12 0.5z" fill="currentColor"/>
  </symbol>
</svg>
